<svg viewBox="0 0 300 300" xmlns="http://www.w3.org/2000/svg" xmlns:xlink="http://www.w3.org/1999/xlink"><defs><circle id="a" cx="150" cy="150" r="150"/><linearGradient x1="28.749%" y1="46.382%" y2="50%" id="d"><stop stop-color="#FFFFFF" stop-opacity=".5" offset="0%"/><stop stop-color="#000000" stop-opacity=".5" offset="100%"/></linearGradient><path d="M48.453 75.023c12.655-2.054 53.627-89.06 1.627-73.06S.01 76.803.01 81.383c0 3.92 1 16.92 11.5 3 3.817-5.062 15.576-5.893 36.943-9.36z" id="c"/><filter x="-50%" y="-50%" width="200%" height="200%" filterUnits="objectBoundingBox" id="e"><feOffset dy="2" in="SourceAlpha" result="shadowOffsetOuter1"/><feGaussianBlur stdDeviation="3" in="shadowOffsetOuter1" result="shadowBlurOuter1"/><feColorMatrix values="0 0 0 0 0 0 0 0 0 0 0 0 0 0 0 0 0 0 0.14 0" in="shadowBlurOuter1" result="shadowMatrixOuter1"/><feMerge><feMergeNode in="shadowMatrixOuter1"/><feMergeNode in="SourceGraphic"/></feMerge></filter><ellipse id="f" cx="12" cy="16.5" rx="12" ry="16.5"/><ellipse id="g" cx="12" cy="16.5" rx="12" ry="16.5"/><linearGradient x1="48.333%" y1="53.181%" x2="50%" y2="100%" id="h"><stop stop-color="#000000" stop-opacity="0" offset="0%"/><stop stop-color="#000000" offset="100%"/></linearGradient><linearGradient x1="47.872%" y1="43.063%" x2="50%" y2="0%" id="i"><stop stop-color="#000000" stop-opacity="0" offset="0%"/><stop stop-color="#000000" offset="100%"/></linearGradient><path d="M29.197 8.552L65.294 31.21c-10.23 19.636-4.15 36.166 15.638 50.233 4.005 2.847 8.01 4.534 4.005 10.058-4.005 5.527-40.085 1.31-56.992-26.38-16.908-27.685 1.252-56.566 1.252-56.566z" id="k"/><filter x="-50%" y="-50%" width="200%" height="200%" filterUnits="objectBoundingBox" id="j"><feOffset dy="8" in="SourceAlpha" result="shadowOffsetOuter1"/><feGaussianBlur stdDeviation="3" in="shadowOffsetOuter1" result="shadowBlurOuter1"/><feColorMatrix values="0 0 0 0 0 0 0 0 0 0 0 0 0 0 0 0 0 0 0.05 0" in="shadowBlurOuter1"/></filter><path d="M5 0h57.5c3 30 12 33 12 33H33C.208 33-4 0 5 0z" id="l"/></defs><g transform="translate(-620.000000, -338.000000) translate(620.000000, 338.000000)" fill="none" fill-rule="evenodd"><mask id="b" fill="white"><use xlink:href="#a"/></mask><use fill="#FFFFFF" xlink:href="#a"/><g mask="url(#b)"><g transform="translate(40.000000, 44.000000) translate(0.000000, 73.000000)"><use fill="#B5BEC5" xlink:href="#c"/><use fill="url(#d)" style="mix-blend-mode:multiply" xlink:href="#c"/></g><g transform="translate(40.000000, 44.000000) translate(21.000000, 0.000000)" fill="#C5CCD1"><circle cx="99" cy="79" r="79"/><path d="M21 70l69 10v176H0"/></g><g filter="url(#e)" transform="translate(40.000000, 44.000000) translate(113.000000, 55.000000)"><use fill="#FFFFFF" xlink:href="#f"/><use fill="#FFFFFF" xlink:href="#g" transform="translate(54.000000, 0.000000)"/><circle fill="#3A5F8A" cx="12" cy="15" r="4"/><circle fill="#3A5F8A" cx="66" cy="15" r="4"/></g><g transform="translate(40.000000, 44.000000) translate(134.000000, 68.000000)"><path d="M0 0h63.555s.787 4.853 1.007 7.132C64.824 9.852 65 15 65 15H0V0z" fill="url(#h)" opacity=".08"/><rect fill="#C5CCD1" x="20" y="15" width="66" height="33" rx="16.5"/><path d="M42.5 81c2.76-30.397 12.242-33 12.242-33H59s-10.938 2.62-13.306 33H42.5z" fill="#A8AEB3"/></g><g transform="translate(40.000000, 44.000000) translate(83.000000, 149.000000)"><path d="M49 0C17 0 0 24.947 0 51.544v55.5h101S87 10 104 10c3 0 5-2 5-5s-2-5-5-5H49z" fill="#DDE0E1"/><rect fill="#DDE0E1" opacity=".2" x="52" width="57" height="10" rx="5"/><path d="M104 10c-6.5 0-7.5 14-7.5 14L56 10h48z" fill="url(#i)" opacity=".12"/></g><g transform="translate(40.000000, 44.000000) translate(48.000000, 178.000000) translate(53.668949, 51.078506) scale(-1, 1) rotate(56.000000) translate(-53.668949, -51.078506)"><use fill="black" filter="url(#j)" xlink:href="#k"/><use fill="#C5CCD1" xlink:href="#k"/></g><path d="M155.673 95.69L175 102m32 1l21.327-4.31" stroke-linecap="round" stroke-linejoin="round" stroke="#4A4A4A" stroke-width="4"/><g transform="translate(40.000000, 44.000000) translate(114.000000, 116.000000)"><mask id="m" fill="white"><use xlink:href="#l"/></mask><use fill="#4A4A4A" transform="translate(37.688601, 16.500000) scale(1, -1) translate(-37.688601, -16.500000)" xlink:href="#l"/><path fill="#FFFFFF" mask="url(#m)" d="M6 0h68v10H6z"/></g></g></g></svg>